<?xml version="1.0" encoding="utf-8"?>
<!-- Generator: Adobe Illustrator 18.1.0, SVG Export Plug-In . SVG Version: 6.00 Build 0)  -->
<svg version="1.0" id="Layer_1" xmlns="http://www.w3.org/2000/svg" xmlns:xlink="http://www.w3.org/1999/xlink" x="0px" y="0px"
	 viewBox="0 0 150 150" enable-background="new 0 0 150 150" xml:space="preserve">
<path fill="#CA92C1" d="M160.8,246.4c-0.2-0.7-0.9-1.2-1.7-1c-0.7,0.2-1.1,0.8-1,1.5c0-0.6,0.4-1.1,1-1.2c0.7-0.2,1.3,0.2,1.5,0.9
	c0.1,0.6-0.1,1.1-0.6,1.4C160.6,247.7,161,247.1,160.8,246.4"/>
<path fill="#C64D9B" d="M159.8,248.5c-0.9,0.2-1.8-0.3-2-1.1c-0.2-0.8,0.2-1.6,0.9-2c-0.6,0.3-0.9,1-0.7,1.7c0.2,0.8,1.1,1.3,1.8,1
	c0.7-0.2,1.1-0.8,1.1-1.5C161.1,247.5,160.6,248.3,159.8,248.5"/>
<g>
	<path fill="#0697CC" d="M159.8,247.2L159.8,247.2C159.8,247.2,159.8,247.2,159.8,247.2z"/>
	<path fill="#0697CC" d="M159.7,246.9C159.7,246.9,159.7,246.9,159.7,246.9C159.7,246.9,159.7,246.9,159.7,246.9z"/>
	<path fill="#C64D9B" d="M159.8,247.2c0.3-0.1,0.4-0.4,0.4-0.4s-0.2,0-0.5,0c0,0,0,0,0,0c0,0,0,0,0,0c0-0.1,0.1-0.2,0.1-0.2
		s-0.1,0-0.1,0c0,0,0,0,0,0c0,0,0,0,0,0c0.1-0.3,0-0.6,0-0.6s-0.1,0-0.1,0.1c0-0.2-0.1-0.3-0.1-0.3s-0.4,0.5-0.4,1
		c0,0,0-0.1-0.1-0.1c0-0.1-0.1-0.1-0.3,0c-0.1,0-0.2,0.1-0.3,0.1c0.2,0,0.6,0.2,0.7,0.4c0,0,0,0,0,0c0,0.2-0.1,0.4-0.3,0.4
		c0.2,0,0.4-0.2,0.4-0.4c0,0,0,0,0-0.1c0,0,0-0.1,0-0.1C159.4,247.3,159.6,247.3,159.8,247.2C159.8,247.3,159.8,247.2,159.8,247.2
		L159.8,247.2"/>
</g>
<g>
	<g>
		<path fill="#F6921E" d="M136.8,51c4.4,13,3.9,27.4-0.7,40.3c-5.2,15.4-16.9,28.4-31.2,36.1c-14,6.9-30.6,9.3-45.8,5l-0.2,0.2
			c-2.7-1.1-5.4-2.4-8.4-2.8l-0.1-0.6c-12.6-5.4-23-15.3-30.1-26.9C8.2,82,9.4,54.9,22.6,35.5c5.9-9.3,14.5-16.4,24-21.8
			C29.8,21.8,16.5,37,11.4,55c-5.1,16.4-3.2,34.7,4.8,49.8l0.2,0c7.1,13.8,19.5,24.6,33.8,30.5c18.3,7.4,39.9,6.5,57-3.5
			c15.2-8.6,26.6-23.4,31.4-40.2c2.6-8.8,3.3-18,2.5-27.1C140.4,58,138,52,135.5,46C135.8,47.7,136.2,49.4,136.8,51z"/>
	</g>
	<g>
		<path fill="none" d="M114.5,77.9c-0.1-1.2-1.7-4-2.3-5c0.5,0.8,1.4,2.7,1.7,5c0,0.1,0,0.2,0,0.3C114.2,78.2,114.5,78.2,114.5,77.9
			z"/>
		<path fill="#4A4A4A" d="M114.5,77.9c0,0.3-0.2,0.3-0.6,0.2c0.6,4.9,0.1,11.3,0.1,11.3s-0.3,2.4,0,4.2c0.4,2.6,1.3,4.9,1.3,4.9
			s0.8,1.6,1,3c0.3,1.3,0,2.3,0,2.3s-0.2,0.6,0,0.8c1,1.3,1,0,1.6-0.2c0.3-0.1,0.6,0.3,0.6,0.3s0.7,0.6,0.8,0.4
			c0.1-0.2-0.4-1.3-0.4-1.3s-0.3-0.3-0.4-0.9c-0.1-0.7,0-1.7-0.1-2.5c-0.1-1-0.4-1.7-0.4-1.7s-0.7-2-0.5-4.2c0.3-3.9,1.5-9,1.5-9
			s1-4.4,1-8.3c0-4.5-0.9-8.4-0.9-8.4s-1.4-2.7-2-4.5c-0.8-2.4-1-4.1-1-4.1s0-1.7-0.4-2.5c-0.4-0.9-1.5-2.2-2.2-3.2
			c-0.9-1.5-1.3-2.7-1.3-2.7s-0.5-1.5-0.9-2.2c-0.9-1.4-2.2-2.6-2.2-2.6s-1.2-1.2-2.1-1.2c-3.1,0.2-9.3,1.8-9.3,1.8
			s-1.3,0.4-2.5,0.3c-1.6,0-3.4-0.4-3.4-0.4s-0.8-0.4-1.7-0.5c-1-0.2-2.1-0.2-2.1-0.2s-1.7-0.1-3.3-0.2c-3.2-0.4-7.6-1-7.6-1
			s-2.6-0.4-5.5-0.5c-2.4-0.1-5,0.1-7.1,0.1c-1.9,0-3.4-0.1-3.4-0.1s-1.9-0.3-3-0.1c-1.6,0.3-3.5,1.1-5.4,1.6
			c-1.3,0.3-3.5,0.3-5.2,0.7c-1.7,0.4-2.7,1.2-3.2,1.5c-2.4,1.6-4.8,4.1-4.8,4.1s-1.8,2.6-2.3,4.4c-0.2,0.6-0.3,1.1-0.5,1.7
			l-0.9,2.3l-7.2,25.8c0,0-0.3,4.5,1.1,0.6c1.5-4,4.2-13.1,6-19.9c0.1,0.8,0.1,1.8,0.3,2.8c0.4,3.5,1.1,7.4,1.1,7.4s0.5,1.4,0.7,3.3
			c0.4,2.8,1.4,4.5,1.4,4.5s0.3,1.7,0.9,3.3c0.5,1.4,1.1,2.7,1.1,2.7s-0.2,0.4-0.3,1.7c-0.1,1.1,0.1,2.7-0.1,4.1
			c-0.2,2.4-0.6,4.6-0.6,4.6s-0.3,0.4-0.3,0.8c0,0.5,0.3,1.1,0.3,1.1s-0.1,0.8-0.2,1.3c-0.1,0.7-0.1,1.1-0.1,1.1s-0.2,1.4,0.3,1.9
			c0.6,0.6,2.1,0.3,2.1,0.3s0.6,0.2,1.5,0.2c1.3,0,3.1-0.2,3.1-0.2s0.7,0.1,1.4,0c0.9-0.1,1.7-0.3,1.7-0.3s0.9,0.2,1-0.1
			c0.3-0.4-0.1-1.2-0.1-1.2s-0.1-0.7-0.6-1.1c-0.4-0.4-1.1-0.6-1.4-1c-0.9-1.3-1.2-2.3-1.2-2.3s-0.4-2.6-0.5-4.8
			c-0.1-2.5,0.2-4.8,0.2-4.8s0.3-1.9,0.7-2.9c0.5-1.1,1.2-1.1,1.2-1.1s0.5,1.2,0.6,3c0.2,3,0.1,7.2,0.1,7.2s-0.1,1,0.1,2
			c0.1,0.6,0.5,1.6,0.5,1.6l0,1.2c0,0-0.3,0.8-0.2,1.4c0.1,0.7,0.5,1.1,0.5,1.1s1.5,0.8,2.7,0.8c0.9,0,2.3,0,3.2-0.2
			c1.7-0.3,2.8-1,2.8-1s0.8,0,0.8-0.5c0-0.7-0.7-1.9-0.7-1.9s-1.2-0.7-1.8-1.7c-0.8-1.3-1-3.1-1-3.1s-0.8-3-0.8-5.7
			c-0.1-3.2,0.6-6.1,0.6-6.1s1.1,0.2,2,0.3c0.9,0,1.5-0.1,1.5-0.1s6.6,0.4,8.7,0.1c4.5-0.5,6.6-1.9,6.6-1.9s0.7-0.3,1.3-0.3
			c1.3,0.2,3.4,0.8,3.4,0.8s0.3,2.2,0.2,4.5C80.6,93.4,80,97,80,97s-0.3,0.8-0.4,1.9c-0.1,1.3-0.1,3-0.1,3s-0.9,1.3-1.3,2.3
			c-0.4,1-0.3,1.6-0.3,1.6s0.1,1,0.9,1.1c1.4,0.3,3.9-0.2,3.9-0.2s1,0.2,1.7,0.2c0.9-0.1,1.5-0.4,1.5-0.4s0.4,0.2,0.8,0.2
			c0.6,0,1.2-0.3,1.2-0.3s-0.2-1.1-0.7-1.8c-0.6-0.8-1.5-1.2-1.5-1.2s-0.6-0.4-0.8-0.9c-0.2-0.5,0.2-1.1,0.2-1.1s0.5-0.1,0.8-0.4
			c0.5-0.5,0.8-1.4,0.8-1.4s0.6-1.1,1-2.7c0.4-1.5,0.5-3.3,0.5-3.3s0.6-2.3,1-4.2c0.5-2.4,0.8-4.5,0.8-4.5s0.3,0.4,0.7,0.7
			c0.4,0.3,0.9,0.4,0.9,0.4s1,0.3,1.5,1.2c1.1,2.2,2.4,6.4,2.4,6.4s0.8,2.8,0.8,5.1c0,2.6-0.8,4.7-0.8,4.7s-0.9,1.5-0.2,2
			c2.2,1.5,5.4,1,5.4,1s1,0.1,1.9-0.1c1-0.2,1.9-0.5,1.9-0.5s1.1,0.2,0-1.9c-0.5-0.9-1.2-1.4-1.2-1.4s-0.7-0.4-1-1
			c-0.3-0.6,0-1.4,0-1.4s0.7-0.9,0.7-2.7c-0.1-2.7-0.7-5.6-0.9-6.6c-0.2-1-0.2-4.6-0.9-8.3c-0.8-4-2.1-7.3-2.1-7.3s0.3-0.7,0.4-1.6
			c0.1-0.6-0.3-1-0.2-1.5c0-0.4,0.5-1.1,0.5-1.1s1.7,1.4,3.1,1.9c1.3,0.5,2.4,0.5,3.5,0.7c1,0.2,2.1,0.6,2.1,0.6s0.9,0.6,1.5,1.2
			c0.6,0.6,0.9,1.1,0.9,1.1s0.8,1.3,1.3,1.7c0.4,0.2,0.5-0.5,0.5-0.5s1,0.5,1.6,0.5c0-0.1,0-0.2,0-0.3"/>
	</g>
</g>
</svg>
