<?xml version="1.0" encoding="utf-8"?>
<!-- Generator: Adobe Illustrator 16.0.0, SVG Export Plug-In . SVG Version: 6.00 Build 0)  -->
<!DOCTYPE svg PUBLIC "-//W3C//DTD SVG 1.1//EN" "http://www.w3.org/Graphics/SVG/1.1/DTD/svg11.dtd">
<svg xmlns="http://www.w3.org/2000/svg" xmlns:xlink="http://www.w3.org/1999/xlink" version="1.1" id="Layer_1" x="0px" y="0px" width="100px" height="100px" viewBox="0 0 100 100" enable-background="new 0 0 100 100" xml:space="preserve">

<g>
	<path fill="#8BC53F" d="M54.156,29.912c3.268,0.637,6.58-2.329,6.297-5.646c-0.043-3.416-3.759-6.042-7-4.971   c-2.304,0.672-4.009,2.985-3.878,5.395C49.586,27.237,51.645,29.546,54.156,29.912z"/>
	<path fill="#8BC53F" d="M52.064,44.39c3.35-2.953,8.264-4.173,12.551-2.794c1.842,0.556,3.502,1.838,4.309,3.614   c0.986,2.108,0.845,4.567,0.212,6.758c-1.019,3.546-3.229,6.634-5.834,9.197c-5.392,5.319-12.55,8.729-20.056,9.672   c3.437,2.296,7.653,3.141,11.745,2.876c7.495-0.457,14.511-3.663,20.749-7.681c8.165-5.79,15.3-13.894,17.469-23.905   c-7.3,15.615-23.811,25.893-40.789,27.228c5.604-1.308,10.845-3.9,15.557-7.175c5.633-3.9,10.863-8.852,13.712-15.192   c1.633-3.682,1.999-8.073,0.267-11.783c-1.274-2.718-3.285-5.311-6.161-6.438c-2.746-1.142-5.823-0.964-8.667-0.327   c-6.776,1.891-12.769,6.327-16.734,12.121c-2.593,3.764-4.118,8.356-3.753,12.958C47.734,50.132,49.303,46.749,52.064,44.39z"/>
	<g>
		<path fill="#035BA9" d="M27.138,44.897c3.018,0.06,5.665-2.784,5.382-5.791c-0.098-3.17-3.366-5.698-6.466-5.008    c-2.348,0.411-4.26,2.533-4.396,4.922C21.303,42.092,24.049,45.022,27.138,44.897z"/>
		<path fill="#035BA9" d="M58.247,75.571c-5.295,0.68-10.736,0.157-15.808-1.522c-5.518-1.874-10.791-5.102-14.201-9.918    c-1.606-2.331-2.865-5.452-1.602-8.212c1.046-2.323,3.862-3.14,6.221-2.802c4.908,0.576,9.098,3.835,11.821,7.822    c-1.487-5.787-6.166-10.427-11.689-12.486c-2.446-0.882-5.213-1.261-7.708-0.359c-3.671,1.444-6.286,5.285-6.057,9.266    c0.229,5.783,4.112,10.78,8.797,13.875c-2.68-0.703-5.3-1.689-7.637-3.198c-5.218-3.26-9.222-8.032-13.095-12.736    c3.699,9.615,11.075,17.737,20.319,22.304c2.571,1.268,5.25,2.346,8.04,3.054c14.016,3.982,29.965,0.697,41.045-8.829    c3.313-2.825,6.155-6.173,8.493-9.838c-3.742,3.304-7.698,6.405-12.12,8.762C68.467,73.212,63.444,74.96,58.247,75.571z"/>
	</g>
</g>
</svg>
