<?xml version="1.0" encoding="utf-8"?>
<!-- Generator: Adobe Illustrator 16.0.0, SVG Export Plug-In . SVG Version: 6.00 Build 0)  -->
<!DOCTYPE svg PUBLIC "-//W3C//DTD SVG 1.1//EN" "http://www.w3.org/Graphics/SVG/1.1/DTD/svg11.dtd">
<svg version="1.1" id="Layer_1" xmlns="http://www.w3.org/2000/svg" xmlns:xlink="http://www.w3.org/1999/xlink" x="0px" y="0px"
	 width="100px" height="100px" viewBox="0 0 100 100" enable-background="new 0 0 100 100" xml:space="preserve">
<g>
	<g>
		<path fill="#3D291E" d="M86.616,41.498c-0.03,0-0.077-0.056-0.106-0.124c-0.027-0.066-0.106-0.161-0.176-0.209
			c-0.068-0.047-0.146-0.11-0.171-0.141c-0.022-0.03-0.161-0.164-0.303-0.297c-0.142-0.135-0.26-0.271-0.26-0.304
			c0-0.032-0.059-0.122-0.131-0.199c-0.073-0.076-0.144-0.193-0.156-0.256c-0.015-0.065-0.067-0.13-0.117-0.148
			c-0.05-0.019-0.11-0.076-0.137-0.129c-0.087-0.182-0.459-0.623-0.599-0.709c-0.181-0.114-0.252-0.34-0.283-0.911
			c-0.017-0.29-0.063-0.557-0.134-0.765c-0.143-0.42-0.137-0.532,0.038-0.81c0.142-0.224,0.148-0.254,0.148-0.71
			c0-0.453-0.007-0.485-0.135-0.661c-0.092-0.129-0.19-0.203-0.315-0.236c-0.1-0.029-0.262-0.072-0.361-0.101
			c-0.401-0.117-0.598-0.059-0.911,0.267c-0.113,0.115-0.158,0.136-0.2,0.089c-0.029-0.032-0.098-0.06-0.153-0.06
			c-0.111,0-0.219-0.122-0.175-0.202c0.018-0.03,0.135-0.106,0.264-0.17c0.227-0.111,0.657-0.498,0.657-0.587
			c0-0.025,0.053-0.135,0.113-0.245c0.063-0.109,0.113-0.239,0.113-0.291c0-0.047,0.032-0.137,0.071-0.199
			c0.144-0.229,0.206-1.207,0.102-1.565c-0.028-0.097-0.103-0.25-0.166-0.342l-0.11-0.165l-0.113,0.125
			c-0.109,0.122-0.213,0.373-0.266,0.633c-0.014,0.069-0.05,0.16-0.081,0.2c-0.03,0.042-0.065,0.173-0.079,0.291
			c-0.021,0.192-0.071,0.267-0.48,0.714c-0.252,0.275-0.507,0.514-0.567,0.53c-0.063,0.018-0.131,0.072-0.153,0.119
			c-0.037,0.073-0.101,0.085-0.404,0.078c-0.199-0.006-0.376-0.026-0.391-0.042c-0.045-0.049-0.376-0.042-0.376,0.008
			s-0.541,0.358-0.633,0.359c-0.158,0.002-0.749,0.55-0.771,0.715c-0.011,0.07-0.077,0.127-0.206,0.181l-0.192,0.077l-0.393-0.447
			c-0.419-0.479-0.725-0.689-1.157-0.799c-0.246-0.064-0.478-0.035-0.507,0.059c-0.009,0.033,0.078,0.157,0.194,0.274
			c0.639,0.654,0.803,0.924,0.897,1.467c0.032,0.192,0.054,0.364,0.043,0.381c-0.011,0.016-0.166,0.06-0.345,0.095
			c-0.214,0.043-0.355,0.099-0.407,0.164c-0.107,0.135-0.544,0.259-0.664,0.19c-0.05-0.03-0.09-0.083-0.09-0.119
			c0-0.094-0.181-0.187-0.361-0.187c-0.535,0-1.286,0.047-1.597,0.101c-0.197,0.036-0.501,0.082-0.675,0.101
			c-0.325,0.039-0.531,0.11-0.583,0.203c-0.015,0.029-0.109,0.052-0.207,0.052s-0.213,0.021-0.255,0.048
			c-0.043,0.027-0.839,0.07-1.768,0.097c-0.927,0.026-1.797,0.072-1.934,0.1c-0.396,0.081-0.642,0.142-0.809,0.201
			c-0.088,0.031-0.227,0.055-0.312,0.055c-0.083,0-0.235,0.042-0.337,0.095c-0.184,0.094-0.332,0.141-0.973,0.309
			c-0.186,0.048-0.469,0.125-0.63,0.167c-0.432,0.117-1.079,0.239-1.258,0.237c-0.087,0-0.181,0.024-0.213,0.053
			c-0.034,0.033-0.144,0.039-0.28,0.017c-0.137-0.02-0.289-0.01-0.382,0.024c-0.087,0.033-0.487,0.112-0.892,0.181
			c-0.856,0.147-1.108,0.194-1.385,0.269c-0.111,0.03-0.284,0.066-0.384,0.083c-0.097,0.015-0.209,0.039-0.246,0.053
			c-0.037,0.015-0.169,0.035-0.291,0.045c-0.433,0.033-0.767,0.078-0.833,0.106c-0.165,0.074-1.337,0.083-1.578,0.013
			c-0.09-0.025-0.367-0.048-0.62-0.053c-0.25-0.001-0.469-0.025-0.483-0.053c-0.017-0.026-0.277-0.045-0.597-0.042
			c-0.313,0.003-0.791,0.003-1.062,0.003c-0.693-0.006-2.972-0.313-3.384-0.458c-0.077-0.028-0.22-0.062-0.314-0.075
			c-0.323-0.046-0.489-0.086-0.534-0.127c-0.025-0.021-0.228-0.053-0.451-0.07c-0.441-0.033-0.855-0.11-0.976-0.181
			c-0.043-0.026-0.181-0.047-0.304-0.047c-0.125,0-0.226-0.023-0.226-0.05s-0.124-0.052-0.283-0.052
			c-0.153,0-0.35-0.021-0.438-0.047c-0.086-0.027-0.688-0.082-1.334-0.125c-0.647-0.042-1.209-0.089-1.25-0.107
			c-0.081-0.035-0.569,0.147-0.744,0.278c-0.063,0.046-0.205,0.114-0.315,0.151c-0.366,0.118-0.471,0.19-0.919,0.636
			c-0.096,0.097-0.248,0.236-0.336,0.309c-0.201,0.169-0.361,0.366-0.363,0.448c-0.001,0.036-0.021,0.063-0.043,0.063
			c-0.022,0-0.134,0.14-0.245,0.313c-0.113,0.171-0.266,0.378-0.341,0.458c-0.142,0.152-0.318,0.487-0.318,0.606
			c0,0.038-0.045,0.105-0.099,0.147c-0.068,0.053-0.105,0.137-0.11,0.257c-0.007,0.099-0.031,0.207-0.055,0.238
			c-0.11,0.15-0.268,0.529-0.296,0.71c-0.017,0.111-0.063,0.252-0.1,0.318c-0.125,0.215-0.187,0.477-0.142,0.607
			c0.025,0.077,0.023,0.164-0.003,0.226c-0.024,0.057-0.056,0.28-0.073,0.5c-0.015,0.217-0.045,0.432-0.067,0.477
			c-0.02,0.044-0.042,0.226-0.047,0.406c-0.007,0.178-0.027,0.36-0.049,0.406c-0.021,0.047-0.04,0.318-0.042,0.602
			c-0.001,0.285-0.036,0.778-0.072,1.094c-0.037,0.319-0.075,0.762-0.085,0.985c-0.01,0.227-0.048,0.47-0.085,0.551
			c-0.049,0.103-0.067,0.307-0.067,0.717c-0.002,0.586-0.028,0.746-0.205,1.181c-0.203,0.494-0.243,0.698-0.26,1.266
			c-0.014,0.437-0.033,0.583-0.092,0.654c-0.043,0.053-0.075,0.176-0.075,0.286c0,0.128-0.032,0.23-0.096,0.307
			c-0.084,0.101-0.089,0.132-0.041,0.265c0.081,0.216-0.035,0.579-0.282,0.891c-0.054,0.07-0.075,0.144-0.057,0.196
			c0.03,0.09-0.066,0.483-0.182,0.744c-0.048,0.105-0.078,0.302-0.091,0.508c0.014,0.007,0.028,0.007,0.042,0.014
			c0.732,0.446,1.464,0.899,2.198,1.348c-0.102-0.656-0.11-0.89-0.039-0.981c0.152-0.197,0.171-0.39,0.184-1.762
			c0.007-0.76-0.005-1.458-0.025-1.556c-0.021-0.097-0.046-0.216-0.057-0.269c-0.012-0.048,0.009-0.157,0.044-0.235
			c0.079-0.165,0.066-0.819-0.017-0.91c-0.064-0.073-0.066-0.371-0.005-0.417c0.028-0.016,0.096-0.116,0.157-0.222
			c0.085-0.151,0.102-0.235,0.082-0.385c-0.015-0.107-0.042-0.217-0.061-0.242c-0.019-0.03-0.018-0.176,0.001-0.327
			c0.02-0.156,0.027-0.378,0.017-0.499c-0.008-0.119,0.002-0.243,0.025-0.273c0.021-0.03,0.051-0.302,0.065-0.605
			c0.012-0.303,0.048-0.754,0.083-1.003c0.05-0.394,0.068-0.452,0.153-0.466c0.086-0.014,0.098,0.018,0.127,0.352
			c0.018,0.2,0.048,0.388,0.067,0.415c0.02,0.029,0.047,0.149,0.061,0.268c0.013,0.119,0.059,0.262,0.103,0.313
			c0.059,0.073,0.076,0.177,0.071,0.436c-0.003,0.185,0.018,0.451,0.043,0.588c0.063,0.307,0.064,0.311,0.175,0.52
			c0.051,0.094,0.135,0.307,0.187,0.476c0.051,0.171,0.125,0.348,0.161,0.396c0.048,0.06,0.062,0.148,0.045,0.288
			c-0.022,0.181-0.007,0.225,0.128,0.385c0.102,0.119,0.153,0.229,0.153,0.325c0,0.08,0.054,0.283,0.118,0.457
			c0.064,0.17,0.127,0.394,0.137,0.497c0.011,0.098,0.089,0.331,0.175,0.51c0.084,0.179,0.152,0.378,0.151,0.444
			c-0.006,0.185,0.054,0.963,0.074,0.983c0.012,0.014-0.003,0.053-0.031,0.089c-0.035,0.049-0.035,0.11,0.001,0.225
			c0.108,0.348,0.051,0.785-0.174,1.32c-0.047,0.109-0.129,0.332-0.186,0.489c-0.056,0.16-0.116,0.293-0.128,0.293
			c-0.016,0-0.054,0.073-0.084,0.17c-0.031,0.094-0.122,0.235-0.205,0.315c-0.19,0.188-0.2,0.206-0.253,0.517
			c0,0,0,0.005-0.001,0.005c1.588,0.952,3.199,1.862,4.874,2.641c0.237,0.109,0.476,0.208,0.716,0.312
			c-0.03-0.11-0.053-0.373-0.06-0.732c-0.007-0.357-0.028-0.675-0.05-0.707s-0.043-0.295-0.049-0.588
			c-0.005-0.293-0.032-0.554-0.057-0.581c-0.056-0.06-0.036-0.742,0.024-0.822c0.022-0.029,0.047-0.121,0.055-0.203
			c0.03-0.266,0.115-0.199,0.137,0.105c0.014,0.16,0.046,0.297,0.076,0.307c0.03,0.014,0.105,0.137,0.169,0.279
			c0.163,0.361,0.231,0.435,0.405,0.435c0.142,0,0.152-0.014,0.221-0.274c0.044-0.17,0.066-0.412,0.058-0.625
			c-0.007-0.192,0.002-0.364,0.02-0.387c0.017-0.019,0.071,0.007,0.118,0.055c0.13,0.128,0.444,0.064,0.481-0.101
			c0.015-0.064,0.015-0.135,0.003-0.16c-0.014-0.022-0.004-0.073,0.018-0.114c0.069-0.119,0.22,0.137,0.221,0.377
			c0.002,0.19,0.07,0.479,0.148,0.616c0.057,0.101,0.279,0.073,0.373-0.044c0.077-0.094,0.085-0.178,0.078-0.734l-0.007-0.627
			l0.132-0.123c0.07-0.069,0.131-0.156,0.131-0.192c0-0.068,0.071-0.121,0.489-0.346c0.132-0.071,0.249-0.174,0.261-0.225
			c0.014-0.052,0.062-0.107,0.108-0.118c0.074-0.023,0.086-0.071,0.086-0.341v-0.312l0.398,0.027
			c0.275,0.022,0.446,0.062,0.557,0.131c0.267,0.167,0.674,0.394,0.912,0.51c0.125,0.058,0.288,0.138,0.362,0.176
			c0.317,0.158,0.593,0.195,1.565,0.195c0.841,0.004,0.99,0.016,1.034,0.082c0.046,0.068,0.188,0.08,0.954,0.087
			c0.493,0,0.98-0.019,1.079-0.041c0.117-0.03,0.239-0.023,0.352,0.011c0.144,0.049,0.192,0.044,0.299-0.024
			c0.164-0.11,0.205-0.107,0.353,0.014c0.115,0.096,0.142,0.096,0.481,0.036c0.197-0.036,0.413-0.098,0.478-0.137
			c0.556-0.344,0.706-0.417,0.833-0.403c0.092,0.007,0.184-0.029,0.27-0.109c0.114-0.105,0.245-0.192,0.522-0.344
			c0.044-0.024,0.108-0.045,0.146-0.045c0.038,0,0.132-0.063,0.214-0.138c0.081-0.078,0.229-0.199,0.327-0.274
			c0.179-0.133,0.185-0.133,0.631-0.085c0.248,0.025,0.541,0.068,0.65,0.094c0.112,0.027,0.28,0.051,0.373,0.051
			c0.101,0,0.181,0.032,0.194,0.068c0.012,0.037-0.004,0.281-0.038,0.54c-0.072,0.54-0.053,1.94,0.028,2.089
			c0.038,0.066-0.049,0.886-0.107,1.041c-0.021,0.053-0.05,0.211-0.06,0.348c-0.026,0.334-0.083,0.567-0.255,1.08
			c-0.078,0.233-0.157,0.494-0.177,0.574c-0.081,0.354-0.176,0.529-0.283,0.529c-0.06,0-0.165,0.063-0.237,0.148
			c-0.127,0.148-0.128,0.153-0.056,0.322c0.041,0.092,0.12,0.188,0.177,0.206c0.238,0.082,0.226,0.22-0.054,0.52
			c-0.288,0.312-0.298,0.45-0.043,0.602c0.1,0.058,0.21,0.105,0.244,0.105c0.033,0,0.104,0.06,0.151,0.137
			c0.087,0.133,0.105,0.138,0.554,0.146c0.257,0.01,0.639,0.028,0.849,0.046c0.031,0.005,0.057,0.005,0.085,0.005
			c0.284-0.041,0.564-0.092,0.846-0.14c0.009-0.032,0.016-0.066,0.016-0.099c0-0.109-0.039-0.174-0.156-0.259
			c-0.158-0.116-0.25-0.274-0.25-0.432c0-0.051-0.036-0.133-0.082-0.188c-0.118-0.138-0.142-0.293-0.096-0.613
			c0.021-0.156,0.048-0.691,0.056-1.188c0.01-0.497,0.039-0.945,0.064-1.003c0.023-0.052,0.057-0.178,0.07-0.274
			c0.039-0.281,0.178-0.593,0.291-0.647c0.057-0.029,0.121-0.105,0.143-0.169c0.05-0.142,0.338-0.567,0.505-0.741
			c0.067-0.073,0.139-0.197,0.155-0.274c0.018-0.083,0.059-0.184,0.095-0.229c0.066-0.087,0.19-1.157,0.179-1.571
			c-0.007-0.223,0.004-0.25,0.082-0.236c0.152,0.021,0.353,0.06,0.519,0.101l0.157,0.037l0.053,0.402
			c0.03,0.22,0.056,0.504,0.057,0.632c0.002,0.128,0.021,0.288,0.042,0.354c0.025,0.071,0.024,0.222-0.001,0.385
			c-0.041,0.244-0.034,0.281,0.072,0.46c0.124,0.208,0.142,0.361,0.067,0.576c-0.032,0.092-0.029,0.151,0.005,0.199
			c0.029,0.039,0.038,0.13,0.021,0.222c-0.025,0.124-0.011,0.184,0.058,0.266c0.049,0.062,0.115,0.201,0.145,0.312
			c0.031,0.109,0.067,0.233,0.08,0.274c0.012,0.041,0.03,0.3,0.04,0.571c0.011,0.272,0.037,0.536,0.061,0.586
			c0.024,0.048,0.047,0.444,0.053,0.884c0.006,0.645-0.006,0.814-0.063,0.917c-0.03,0.053-0.062,0.156-0.086,0.254
			c0.606-0.15,1.209-0.307,1.81-0.489c-0.041-0.174-0.053-0.33-0.051-0.593c0.003-0.469-0.017-0.734-0.062-0.816
			c-0.043-0.078,0.132-0.698,0.253-0.899c0.063-0.104,0.127-0.238,0.145-0.298c0.018-0.062,0.068-0.126,0.116-0.14
			c0.075-0.027,0.09-0.082,0.098-0.368c0.006-0.181,0.013-0.414,0.016-0.51c0.004-0.097,0.02-0.238,0.04-0.312
			c0.019-0.08,0.014-0.206-0.015-0.298c-0.039-0.123-0.03-0.324,0.043-0.915c0.117-0.981,0.185-1.24,0.369-1.404
			c0.28-0.254,0.326-0.307,0.388-0.442c0.035-0.075,0.208-0.254,0.384-0.397c0.427-0.354,0.877-0.867,1.11-1.268
			c0.172-0.293,0.349-0.456,0.594-0.547c0.248-0.092,0.702-0.48,1.069-0.913c0.14-0.162,0.429-0.487,0.645-0.719
			c0.378-0.407,0.557-0.693,0.53-0.853c-0.005-0.046,0.028-0.126,0.075-0.183c0.046-0.055,0.096-0.165,0.111-0.247
			c0.068-0.375,0.118-0.613,0.165-0.801c0.028-0.109,0.064-0.272,0.078-0.362c0.032-0.232,0.103-0.201,0.103,0.045
			c0,0.168,0.083,0.404,0.208,0.586c0.025,0.037,0.535,0.046,0.579,0.012c0.079-0.062,0.41-0.153,0.566-0.156
			c0.085-0.002,0.205-0.045,0.266-0.098c0.063-0.055,0.136-0.099,0.167-0.101c0.096-0.002,0.113-0.101,0.136-0.757
			c0.03-0.826-0.054-1.101-0.352-1.174c-0.071-0.019-0.16-0.079-0.196-0.136c-0.06-0.093-0.059-0.121,0.011-0.249
			c0.13-0.244,0.291-0.383,0.528-0.449c0.122-0.032,0.274-0.101,0.338-0.146c0.124-0.095,0.45-0.208,0.639-0.224
			c0.066-0.006,0.157-0.029,0.203-0.048c0.043-0.021,0.302-0.043,0.573-0.054c0.921-0.025,1.19-0.061,1.357-0.175
			c0.086-0.059,0.193-0.095,0.245-0.079c0.052,0.015,0.12-0.013,0.165-0.063c0.044-0.05,0.148-0.117,0.236-0.149
			c0.086-0.031,0.228-0.105,0.313-0.167c0.087-0.061,0.269-0.188,0.405-0.28l0.248-0.17l0.525,0.032
			c0.731,0.047,1.055-0.059,1.504-0.494c0.121-0.117,0.321-0.273,0.447-0.348c0.231-0.141,0.523-0.552,0.65-0.922
			C86.802,42.291,86.716,41.498,86.616,41.498z"/>
	</g>
	<g>
		<radialGradient id="SVGID_1_" cx="50.709" cy="52.4736" r="57.1531" gradientUnits="userSpaceOnUse">
			<stop  offset="0" style="stop-color:#8BC53F"/>
			<stop  offset="0.3455" style="stop-color:#37B34A"/>
			<stop  offset="0.4555" style="stop-color:#2CA547"/>
			<stop  offset="0.6642" style="stop-color:#117F3D"/>
			<stop  offset="0.7758" style="stop-color:#006838"/>
			<stop  offset="1" style="stop-color:#000600"/>
		</radialGradient>
		<path fill="url(#SVGID_1_)" d="M90.098,39.549c0,0-2.487,10.383-6.122,16.154c-4.095,6.503-16.053,14.84-29.383,9.065
			c0,0-12.053-6.13-21.35-10.1c-4.483-1.913-11.536-4.104-19.055-4.133c0,0,10.218-4.206,31.221,5.167
			c3.531,1.574,10.816,5.5,15.125,5.81C68.497,62.082,78.619,59.867,90.098,39.549z"/>
		<radialGradient id="SVGID_2_" cx="51.4082" cy="52.1563" r="58.2702" gradientUnits="userSpaceOnUse">
			<stop  offset="0" style="stop-color:#8BC53F"/>
			<stop  offset="0.3455" style="stop-color:#37B34A"/>
			<stop  offset="0.4555" style="stop-color:#2CA547"/>
			<stop  offset="0.6642" style="stop-color:#117F3D"/>
			<stop  offset="0.7758" style="stop-color:#006838"/>
			<stop  offset="1" style="stop-color:#000600"/>
		</radialGradient>
		<path fill="url(#SVGID_2_)" d="M84.895,61.899c0,0-13.201,16.186-28.581,11.364c-5.401-1.693-10.423-4.619-20.431-9.756
			c-4.478-2.3-12.168-5.855-19.399-5.396c0,0,11.848-2.968,26.287,4.478c3.401,1.753,6.393,3.087,14.232,5.624
			C64.807,70.737,75.597,70.509,84.895,61.899z"/>
		<radialGradient id="SVGID_3_" cx="51.4092" cy="52.1563" r="58.2678" gradientUnits="userSpaceOnUse">
			<stop  offset="0" style="stop-color:#8BC53F"/>
			<stop  offset="0.3455" style="stop-color:#37B34A"/>
			<stop  offset="0.4555" style="stop-color:#2CA547"/>
			<stop  offset="0.6642" style="stop-color:#117F3D"/>
			<stop  offset="0.7758" style="stop-color:#006838"/>
			<stop  offset="1" style="stop-color:#000600"/>
		</radialGradient>
		<path fill="url(#SVGID_3_)" d="M71.58,74.642c0,0-14.118,7.919-25.483,3.786c0,0-6.197-2.523-10.904-6.081
			c0,0-9.068-7.348-14.463-7.692c0,0,5.509-2.71,23.989,7.486C44.72,72.141,57.921,79.233,71.58,74.642z"/>
	</g>
	<radialGradient id="SVGID_4_" cx="13.3848" cy="35.1553" r="66.927" gradientUnits="userSpaceOnUse">
		<stop  offset="0" style="stop-color:#8BC53F"/>
		<stop  offset="0.3455" style="stop-color:#37B34A"/>
		<stop  offset="0.4555" style="stop-color:#2CA547"/>
		<stop  offset="0.6642" style="stop-color:#117F3D"/>
		<stop  offset="0.7758" style="stop-color:#006838"/>
		<stop  offset="1" style="stop-color:#000600"/>
	</radialGradient>
	<path fill="url(#SVGID_4_)" d="M14.648,38.484c0,0,19.972,4.935,27.892-14.579c0,0-16.3-5.065-27.433,7.568
		c0,0,1.376-3.549-0.918-9.404c0,0-9.297,4.938-4.707,15.956c0,0,2.641-2.296,3.445-11.707c0,0,1.492,5.852-1.378,11.936
		c0,0-8.265,15.84,7.806,30.877c0,0-13.201-12.166-6.427-30.189c0,0,4.017-10.445,16.642-11.134
		C29.568,27.809,19.009,30.564,14.648,38.484z"/>
	<radialGradient id="SVGID_5_" cx="15.3472" cy="42.0693" r="18.9745" gradientUnits="userSpaceOnUse">
		<stop  offset="0" style="stop-color:#8BC53F"/>
		<stop  offset="0.3455" style="stop-color:#37B34A"/>
		<stop  offset="0.4555" style="stop-color:#2CA547"/>
		<stop  offset="0.6642" style="stop-color:#117F3D"/>
		<stop  offset="0.7758" style="stop-color:#006838"/>
		<stop  offset="1" style="stop-color:#000600"/>
	</radialGradient>
	<path fill="url(#SVGID_5_)" d="M13.271,41.698c0,0,5.738,3.673,9.871,2.869c0,0-5.05,1.723-9.871-1.376
		c0,0,4.821,7.92,13.773,0.917C27.043,44.108,21.452,37.185,13.271,41.698z"/>
</g>
</svg>
