<?xml version="1.0" encoding="iso-8859-1"?>
<!-- Generator: Adobe Illustrator 13.0.0, SVG Export Plug-In . SVG Version: 6.00 Build 14948)  -->
<!DOCTYPE svg PUBLIC "-//W3C//DTD SVG 1.1//EN" "http://www.w3.org/Graphics/SVG/1.1/DTD/svg11.dtd">
<svg version="1.1" id="Layer_1" xmlns="http://www.w3.org/2000/svg" xmlns:xlink="http://www.w3.org/1999/xlink" x="0px" y="0px"
	 width="100px" height="100px" viewBox="0 0 100 100" enable-background="new 0 0 100 100" xml:space="preserve">
<g>
	<path fill="#F3D933" d="M49.807,21.823c-14.96,14.966-27.101,39.672-27.101,55.193c0,15.513,12.14,15.95,27.101,0.99
		c14.973-14.975,27.115-39.675,27.115-55.193C76.922,7.282,64.779,6.854,49.807,21.823 M49.807,77.595
		c-10.902,10.901-19.745,7.339-19.745-7.935c0-15.305,8.842-36.541,19.745-47.435c10.917-10.909,19.757-7.339,19.757,7.934
		C69.563,45.456,60.724,66.693,49.807,77.595"/>
	<path fill="#4D79BA" d="M11.492,49.918c10.951,10.968,37.013,19.857,58.187,19.857c21.162,0,29.424-8.889,18.459-19.857
		C77.165,38.933,51.109,30.035,29.946,30.035C8.77,30.035,0.506,38.933,11.492,49.918 M21.899,49.918
		c-10.82-10.821-7.075-19.577,8.329-19.577c15.424-0.008,36.698,8.756,47.503,19.561c10.818,10.812,7.076,19.585-8.347,19.585
		C53.978,69.487,32.703,60.714,21.899,49.918"/>
	<path fill="#F3D933" d="M60.342,49.918c0,5.806-4.715,10.523-10.535,10.523c-5.825,0-10.523-4.717-10.523-10.523
		c0-5.822,4.698-10.54,10.523-10.54C55.627,39.378,60.342,44.096,60.342,49.918"/>
</g>
</svg>
