<?xml version="1.0" encoding="utf-8"?>
<!-- Generator: Adobe Illustrator 16.0.0, SVG Export Plug-In . SVG Version: 6.00 Build 0)  -->
<!DOCTYPE svg PUBLIC "-//W3C//DTD SVG 1.1//EN" "http://www.w3.org/Graphics/SVG/1.1/DTD/svg11.dtd">
<svg version="1.1" id="Layer_1" xmlns="http://www.w3.org/2000/svg" xmlns:xlink="http://www.w3.org/1999/xlink" x="0px" y="0px"
	 width="100px" height="100px" viewBox="0 0 100 100" enable-background="new 0 0 100 100" xml:space="preserve">
<g>
	<g>
		<g>
			<rect x="48.376" y="27.917" fill="#085CA9" width="19.048" height="2.732"/>
		</g>
	</g>
	<polygon fill="#085CA9" points="17.399,36.348 7.624,36.348 10.559,26.922 20.337,26.922 	"/>
	<polygon fill="#085CA9" points="40.265,83.565 30.482,83.565 33.42,74.14 43.196,74.14 	"/>
	<polygon fill="#DA1F26" points="44.79,67.255 37.885,67.255 39.956,60.599 46.861,60.599 	"/>
	<polygon fill="#085CA9" points="36.917,60.599 27.142,60.599 30.072,51.173 39.852,51.173 	"/>
	<polygon fill="#DA1F26" points="41.74,46.09 33.498,46.09 35.967,38.15 44.213,38.15 	"/>
	<polygon fill="#DA1F26" points="34.154,34.992 25.783,34.992 28.296,26.922 36.672,26.922 	"/>
	<polygon fill="#085CA9" points="54.346,36.259 45.691,36.259 48.287,27.917 56.945,27.917 	"/>
	<polygon fill="#085CA9" points="50.375,51.096 42.373,51.096 44.775,43.378 52.778,43.378 	"/>
	<polygon fill="#DA1F26" points="19.91,45.978 11.902,45.978 14.301,38.262 22.312,38.262 	"/>
	<polygon fill="#085CA9" points="44.403,33.76 37.167,33.76 39.338,26.788 46.57,26.788 	"/>
	<polygon fill="#085CA9" points="33.164,75.227 25.783,75.227 27.998,68.118 35.375,68.118 	"/>
	<polygon fill="#085CA9" points="28.076,52.782 19.757,52.782 22.252,44.765 30.571,44.765 	"/>
	<polygon fill="#085CA9" points="44.738,57.009 40.347,57.009 41.662,52.782 46.049,52.782 	"/>
	<polygon fill="#DA1F26" points="26.698,66.372 22.312,66.372 23.626,62.141 28.017,62.141 	"/>
	<polygon fill="#085CA9" points="23.846,34.504 19.458,34.504 20.773,30.274 25.164,30.274 	"/>
	<path fill="#085CA9" d="M83.237,18.375c-0.037-0.015-0.079-0.026-0.119-0.037c-11.738-2.686-15.507,6.714-15.545,6.811
		c-0.015,0.03-0.021,0.063-0.033,0.093L53.876,70.147h2.86l1.051-3.441c0.563-0.957,4.878-7.601,13.529-4.22
		c0.671,0.336,7.525,4.025,4.838,12.774c-1.363,2.275-4.23,5.635-9.214,5.572H33.498v2.729h33.428c0.06,0,0.112,0.004,0.168,0.004
		c7.414-0.004,11.512-6.163,12.646-9.443c0.007-0.022,0.012-0.045,0.021-0.071l11.93-41.967c0.003-0.019,0.007-0.026,0.01-0.041
		C93.721,24.051,87.047,19.604,83.237,18.375z M89.054,31.358L78.832,67.321c-1.755-5.017-6.302-7.281-6.372-7.318l-0.09-0.037
		c-5.765-2.271-10.048-0.842-12.881,1.133l10.646-35.003c0.269-0.641,3.24-7.151,12.312-5.106
		C83.23,21.262,90.879,24.103,89.054,31.358z"/>
</g>
</svg>
